<svg width="145" height="38" viewBox="0 0 145 38" fill="none" xmlns="http://www.w3.org/2000/svg">
<mask id="path-1-inside-1_2517_6740" fill="white">
<path d="M5.84685 19.7675C5.45466 19.3787 5.45466 18.7483 5.84685 18.3594L7.71341 16.5088C10.0666 14.1757 13.8818 14.1757 16.235 16.5088L18.1015 18.3594C18.4937 18.7483 18.4937 19.3787 18.1015 19.7675L16.235 21.6182C13.8818 23.9513 10.0666 23.9513 7.71341 21.6182L5.84685 19.7675Z"/>
</mask>
<path d="M5.84685 19.7675C5.45466 19.3787 5.45466 18.7483 5.84685 18.3594L7.71341 16.5088C10.0666 14.1757 13.8818 14.1757 16.235 16.5088L18.1015 18.3594C18.4937 18.7483 18.4937 19.3787 18.1015 19.7675L16.235 21.6182C13.8818 23.9513 10.0666 23.9513 7.71341 21.6182L5.84685 19.7675Z" stroke="#C69B7B" stroke-width="5" mask="url(#path-1-inside-1_2517_6740)"/>
<mask id="path-2-inside-2_2517_6740" fill="white">
<path d="M21.9347 19.7675C21.5425 19.3787 21.5425 18.7483 21.9347 18.3594L23.8013 16.5088C26.1545 14.1757 29.9697 14.1757 32.3229 16.5088L34.1894 18.3594C34.5816 18.7483 34.5816 19.3787 34.1894 19.7675L32.3229 21.6182C29.9697 23.9513 26.1545 23.9513 23.8013 21.6182L21.9347 19.7675Z"/>
</mask>
<path d="M21.9347 19.7675C21.5425 19.3787 21.5425 18.7483 21.9347 18.3594L23.8013 16.5088C26.1545 14.1757 29.9697 14.1757 32.3229 16.5088L34.1894 18.3594C34.5816 18.7483 34.5816 19.3787 34.1894 19.7675L32.3229 21.6182C29.9697 23.9513 26.1545 23.9513 23.8013 21.6182L21.9347 19.7675Z" stroke="#C69B7B" stroke-width="5" mask="url(#path-2-inside-2_2517_6740)"/>
<mask id="path-3-inside-3_2517_6740" fill="white">
<path d="M19.3084 5.01364C19.7006 4.62479 20.3365 4.62479 20.7287 5.01364L22.5952 6.86427C24.9484 9.19736 24.9484 12.98 22.5952 15.3131L20.7287 17.1637C20.3365 17.5526 19.7006 17.5526 19.3084 17.1637L17.4419 15.3131C15.0887 12.98 15.0887 9.19736 17.4419 6.86427L19.3084 5.01364Z"/>
</mask>
<path d="M19.3084 5.01364C19.7006 4.62479 20.3365 4.62479 20.7287 5.01364L22.5952 6.86427C24.9484 9.19736 24.9484 12.98 22.5952 15.3131L20.7287 17.1637C20.3365 17.5526 19.7006 17.5526 19.3084 17.1637L17.4419 15.3131C15.0887 12.98 15.0887 9.19736 17.4419 6.86427L19.3084 5.01364Z" stroke="#C69B7B" stroke-width="5" mask="url(#path-3-inside-3_2517_6740)"/>
<mask id="path-4-inside-4_2517_6740" fill="white">
<path d="M19.202 20.1718C19.5942 19.783 20.23 19.783 20.6222 20.1718L22.4888 22.0225C24.842 24.3556 24.842 28.1382 22.4888 30.4713L20.6222 32.3219C20.23 32.7108 19.5942 32.7108 19.202 32.3219L17.3354 30.4713C14.9823 28.1382 14.9823 24.3556 17.3354 22.0225L19.202 20.1718Z"/>
</mask>
<path d="M19.202 20.1718C19.5942 19.783 20.23 19.783 20.6222 20.1718L22.4888 22.0225C24.842 24.3556 24.842 28.1382 22.4888 30.4713L20.6222 32.3219C20.23 32.7108 19.5942 32.7108 19.202 32.3219L17.3354 30.4713C14.9823 28.1382 14.9823 24.3556 17.3354 22.0225L19.202 20.1718Z" stroke="#C69B7B" stroke-width="5" mask="url(#path-4-inside-4_2517_6740)"/>
<path d="M39.0527 19C39.0527 19.6095 38.7907 20.1675 38.2986 20.9374C38.2269 21.0495 38.1475 21.1696 38.0632 21.297C37.6325 21.9481 37.0764 22.7888 36.791 23.7235C36.4981 24.6826 36.394 25.7531 36.3058 26.66C36.2821 26.9041 36.2595 27.1363 36.2347 27.3513C36.1055 28.4713 35.9157 29.2774 35.4727 29.8787C35.0322 30.4766 34.31 30.908 33.2755 31.3784C33.0796 31.4675 32.8673 31.5597 32.6448 31.6563C31.8065 32.0203 30.8217 32.448 30.0128 33.0133C29.2045 33.5783 28.6067 34.372 28.1574 34.9686C28.083 35.0673 28.0127 35.1607 27.9461 35.2467C27.4179 35.9298 27.0332 36.3116 26.5304 36.4887C25.7231 36.773 24.8353 36.7917 23.7491 36.7023C23.4472 36.6774 23.1144 36.6417 22.7624 36.6039C21.9465 36.5163 21.0275 36.4177 20.1514 36.4177C19.2752 36.4177 18.3562 36.5163 17.5403 36.6039C17.1883 36.6417 16.8555 36.6774 16.5536 36.7023C15.4675 36.7917 14.5796 36.773 13.7723 36.4887C13.04 36.2308 12.4412 35.7707 11.7727 35.1409C11.6108 34.9883 11.4366 34.8167 11.2516 34.6345C10.7322 34.1227 10.128 33.5275 9.47405 33.0375C8.8242 32.5506 8.05389 32.1246 7.37942 31.7515C7.15444 31.6271 6.94011 31.5085 6.74449 31.3956C5.88702 30.9006 5.24894 30.4473 4.83007 29.8787C4.34912 29.226 4.08068 28.3594 3.85903 27.2497C3.80101 26.9591 3.74477 26.6395 3.6858 26.3043C3.53926 25.4715 3.37577 24.5423 3.12569 23.7235C2.87136 22.8907 2.45196 22.1181 2.11219 21.4922C2.0239 21.3295 1.94098 21.1768 1.86774 21.0355C1.48136 20.29 1.25 19.6878 1.25 19C1.25 18.3473 1.54609 17.6154 2.05326 16.6669C2.14382 16.4976 2.24416 16.3168 2.34929 16.1274C2.76415 15.3799 3.25363 14.4979 3.51174 13.6528C3.79793 12.7157 3.90449 11.7615 3.99185 10.9794C4.01665 10.7573 4.0399 10.5491 4.06527 10.3591C4.18796 9.44031 4.36546 8.75188 4.83007 8.12127C5.23499 7.57167 5.85119 7.15837 6.7086 6.70028C6.88024 6.60857 7.06716 6.5127 7.2638 6.41185C7.96118 6.05418 8.78073 5.63385 9.47405 5.11439C10.1653 4.5965 10.7924 3.94662 11.3265 3.39309C11.4928 3.2208 11.6501 3.05783 11.7974 2.91109C12.4737 2.23771 13.0634 1.76101 13.7723 1.51131C14.5796 1.22697 15.4675 1.20828 16.5536 1.2977C16.8555 1.32256 17.1884 1.35828 17.5404 1.39607C18.3563 1.48364 19.2752 1.58229 20.1514 1.58229C21.0275 1.58229 21.9465 1.48364 22.7623 1.39607C23.1144 1.35828 23.4472 1.32256 23.7491 1.2977C24.8353 1.20828 25.7231 1.22697 26.5304 1.51131C27.0092 1.67996 27.3893 2.07081 27.9271 2.8039C27.9904 2.89018 28.0572 2.98361 28.1278 3.08235C28.5787 3.71278 29.1841 4.55938 30.0128 5.13858C30.8576 5.72904 31.9398 6.16613 32.8379 6.5289C33.0476 6.6136 33.2473 6.69425 33.4315 6.77185C34.5677 7.25032 35.166 7.6237 35.409 8.02602C35.7593 8.6061 35.9438 9.34142 36.1166 10.3406C36.1483 10.5239 36.1797 10.7175 36.2125 10.9191C36.3469 11.7474 36.5033 12.7109 36.791 13.6528C37.0491 14.4979 37.5386 15.3799 37.9534 16.1274C38.0586 16.3168 38.1589 16.4976 38.2495 16.6669C38.7566 17.6154 39.0527 18.3473 39.0527 19Z" stroke="#C69B7B" stroke-width="2.5"/>
<path d="M72.2268 8.82715C72.3447 8.82714 72.4578 8.88265 72.5415 8.9816C72.6252 9.08054 72.6728 9.21491 72.6738 9.35547V28.4712C72.6738 28.6118 72.6273 28.7467 72.5443 28.8465C72.4614 28.9463 72.3487 29.0031 72.2309 29.0043H70.0484C69.9305 29.0031 69.8179 28.9463 69.7349 28.8465C69.652 28.7467 69.6054 28.6118 69.6054 28.4712V16.0364C69.4336 16.2029 69.2564 16.363 69.0739 16.5167C68.5544 16.9489 68.0269 17.314 67.5155 17.6694C67.0041 18.0248 66.6659 18.3034 66.2632 18.5867C65.5093 19.1061 64.853 19.8047 64.3348 20.6391C63.8167 21.4736 63.4479 22.4262 63.2512 23.4377C63.2291 23.5554 63.174 23.6606 63.0948 23.7358C63.0157 23.8109 62.9174 23.8515 62.8163 23.8508H60.7345C60.6333 23.8515 60.535 23.8109 60.4559 23.7358C60.3768 23.6606 60.3216 23.5554 60.2996 23.4377C60.1029 22.4249 59.7337 21.4711 59.2149 20.6358C58.696 19.8004 58.0386 19.1013 57.2835 18.5819C56.8809 18.2986 56.4782 17.9864 56.0312 17.6646C55.5842 17.3428 54.9923 16.9441 54.4729 16.5119C54.2903 16.3614 54.1131 16.2013 53.9413 16.0316V28.4712C53.9413 28.6118 53.8948 28.7467 53.8118 28.8465C53.7289 28.9463 53.6162 29.0031 53.4984 29.0043H51.3199C51.2021 29.0031 51.0894 28.9463 51.0064 28.8465C50.9235 28.7467 50.8769 28.6118 50.877 28.4712V9.36028C50.877 9.21888 50.924 9.08328 51.0079 8.9833C51.0917 8.88332 51.2054 8.82715 51.3239 8.82715H53.4782C53.5832 8.82888 53.6842 8.87457 53.7637 8.95624C53.8432 9.0379 53.8961 9.15033 53.9131 9.27382C54.0339 10.2056 54.493 12.3813 56.1721 13.5965C56.6151 13.9087 57.054 14.2593 57.5372 14.6003C58.0204 14.9413 58.4916 15.2535 58.9506 15.6377C59.888 16.3811 60.7269 17.2877 61.4391 18.3274C61.4795 18.3883 61.5309 18.4376 61.5894 18.4715C61.648 18.5054 61.7123 18.523 61.7774 18.523C61.8425 18.523 61.9068 18.5054 61.9653 18.4715C62.0239 18.4376 62.0753 18.3883 62.1156 18.3274C62.8264 17.2863 63.6639 16.3781 64.6002 15.6329C65.0793 15.2487 65.5787 14.9029 66.0176 14.5955C66.4565 14.2881 66.9478 13.9087 67.3786 13.5965C69.0618 12.4005 69.5209 10.2344 69.6417 9.27382C69.6587 9.15033 69.7116 9.0379 69.7911 8.95624C69.8706 8.87457 69.9716 8.82888 70.0766 8.82715H72.2268Z" fill="#C69B7B"/>
<path d="M95.4618 18.9157C95.4618 24.4741 91.0189 29.0043 85.5541 29.0043C80.0894 29.0043 75.6465 24.4789 75.6465 18.9157C75.6465 13.3526 80.0894 8.82715 85.5541 8.82715C91.0189 8.82715 95.4618 13.3526 95.4618 18.9157ZM85.5541 12.4927C81.8102 12.4927 78.7651 15.3751 78.7651 18.9157C78.7651 22.4564 81.8102 25.3148 85.5541 25.3148C89.2981 25.3148 92.3473 22.4323 92.3473 18.8965C92.3473 15.3607 89.2981 12.4927 85.5541 12.4927Z" fill="#C69B7B"/>
<path d="M118.249 18.9157C118.249 24.4741 113.584 29.0043 107.846 29.0043C102.108 29.0043 97.4434 24.4789 97.4434 18.9157C97.4434 13.3526 102.108 8.82715 107.846 8.82715C113.584 8.82715 118.249 13.3526 118.249 18.9157ZM107.846 12.4927C103.915 12.4927 100.714 15.3751 100.714 18.9157C100.714 22.4564 103.915 25.3148 107.846 25.3148C111.778 25.3148 114.975 22.4323 114.975 18.8965C114.975 15.3607 111.765 12.4927 107.846 12.4927Z" fill="#C69B7B"/>
<path d="M135.979 18.7668V9.3556C135.979 9.2862 135.99 9.21748 136.013 9.15337C136.035 9.08925 136.068 9.031 136.109 8.98193C136.15 8.93286 136.199 8.89393 136.253 8.86737C136.307 8.84082 136.365 8.82715 136.423 8.82715H138.611C138.67 8.82715 138.727 8.84082 138.781 8.86737C138.835 8.89393 138.884 8.93286 138.925 8.98193C138.967 9.031 138.999 9.08925 139.022 9.15337C139.044 9.21748 139.055 9.2862 139.055 9.3556V28.4759C139.055 28.5453 139.044 28.614 139.022 28.6781C138.999 28.7422 138.967 28.8005 138.925 28.8496C138.884 28.8986 138.835 28.9376 138.781 28.9641C138.727 28.9907 138.67 29.0043 138.611 29.0043H136.443C136.385 29.0043 136.327 28.9907 136.273 28.9641C136.219 28.9376 136.17 28.8986 136.129 28.8496C136.088 28.8005 136.055 28.7422 136.033 28.6781C136.011 28.614 135.999 28.5453 135.999 28.4759V26.9722C136.001 26.5015 135.913 26.0364 135.741 25.6127C135.099 24.0657 133.439 21.2025 129.563 19.449C127.926 18.729 126.392 17.7113 125.017 16.432C124.952 16.3688 124.873 16.3291 124.79 16.3173C124.707 16.3056 124.622 16.3224 124.547 16.3659C124.471 16.4093 124.408 16.4774 124.364 16.5624C124.32 16.6473 124.297 16.7454 124.298 16.8452V28.4759C124.298 28.616 124.251 28.7505 124.168 28.8496C124.085 28.9487 123.972 29.0043 123.854 29.0043H121.666C121.548 29.0043 121.435 28.9487 121.352 28.8496C121.268 28.7505 121.222 28.616 121.222 28.4759V9.3556C121.222 9.21544 121.268 9.08103 121.352 8.98193C121.435 8.88282 121.548 8.82715 121.666 8.82715H123.794C123.882 8.82924 123.968 8.86289 124.04 8.92372C124.112 8.98455 124.167 9.06975 124.197 9.16824C124.549 10.302 126.01 13.9723 130.633 16.0189C132.306 16.7468 133.862 17.8112 135.232 19.1656C135.296 19.2318 135.375 19.2747 135.459 19.2891C135.544 19.3035 135.63 19.2888 135.707 19.2469C135.784 19.2049 135.85 19.1373 135.896 19.0522C135.942 18.9671 135.967 18.868 135.967 18.7668H135.979Z" fill="#C69B7B"/>
<path d="M142.027 26.9865C142.027 26.5872 142.115 26.1969 142.278 25.865C142.442 25.533 142.674 25.2744 142.946 25.1219C143.217 24.9693 143.516 24.9296 143.805 25.0079C144.093 25.0861 144.358 25.2788 144.566 25.5615C144.773 25.8441 144.915 26.2041 144.972 26.5959C145.028 26.9876 144.999 27.3934 144.885 27.762C144.772 28.1306 144.581 28.4454 144.337 28.6665C144.092 28.8877 143.804 29.0052 143.51 29.0042C143.315 29.0042 143.122 28.952 142.942 28.8505C142.762 28.749 142.598 28.6003 142.46 28.4129C142.323 28.2255 142.213 28.003 142.139 27.7582C142.065 27.5135 142.027 27.2512 142.027 26.9865Z" fill="#C69B7B"/>
</svg>
