<svg width="183" height="48" viewBox="0 0 183 48" fill="none" xmlns="http://www.w3.org/2000/svg">
<mask id="path-1-inside-1_2517_6904" fill="white">
<path d="M7.19225 24.7845C6.80022 24.3954 6.80022 23.7647 7.19225 23.3757L10.8528 19.7432C13.205 17.4091 17.0186 17.4091 19.3707 19.7432L23.0313 23.3757C23.4234 23.7647 23.4234 24.3954 23.0313 24.7845L19.3707 28.4169C17.0186 30.751 13.205 30.751 10.8528 28.4169L7.19225 24.7845Z"/>
</mask>
<path d="M7.19225 24.7845C6.80022 24.3954 6.80022 23.7647 7.19225 23.3757L10.8528 19.7432C13.205 17.4091 17.0186 17.4091 19.3707 19.7432L23.0313 23.3757C23.4234 23.7647 23.4234 24.3954 23.0313 24.7845L19.3707 28.4169C17.0186 30.751 13.205 30.751 10.8528 28.4169L7.19225 24.7845Z" stroke="#3A3845" stroke-width="5" mask="url(#path-1-inside-1_2517_6904)"/>
<mask id="path-2-inside-2_2517_6904" fill="white">
<path d="M27.4969 24.7845C27.1049 24.3954 27.1049 23.7647 27.4969 23.3757L31.1575 19.7432C33.5097 17.4091 37.3233 17.4091 39.6754 19.7432L43.336 23.3757C43.728 23.7647 43.728 24.3954 43.336 24.7845L39.6754 28.4169C37.3233 30.751 33.5097 30.751 31.1575 28.4169L27.4969 24.7845Z"/>
</mask>
<path d="M27.4969 24.7845C27.1049 24.3954 27.1049 23.7647 27.4969 23.3757L31.1575 19.7432C33.5097 17.4091 37.3233 17.4091 39.6754 19.7432L43.336 23.3757C43.728 23.7647 43.728 24.3954 43.336 24.7845L39.6754 28.4169C37.3233 30.751 33.5097 30.751 31.1575 28.4169L27.4969 24.7845Z" stroke="#3A3845" stroke-width="5" mask="url(#path-2-inside-2_2517_6904)"/>
<mask id="path-3-inside-3_2517_6904" fill="white">
<path d="M24.5538 6.14773C24.9459 5.75872 25.5815 5.75872 25.9735 6.14774L29.6341 9.78021C31.9862 12.1143 31.9862 15.8986 29.6341 18.2327L25.9735 21.8652C25.5815 22.2542 24.9459 22.2542 24.5538 21.8652L20.8933 18.2327C18.5411 15.8986 18.5411 12.1143 20.8933 9.7802L24.5538 6.14773Z"/>
</mask>
<path d="M24.5538 6.14773C24.9459 5.75872 25.5815 5.75872 25.9735 6.14774L29.6341 9.78021C31.9862 12.1143 31.9862 15.8986 29.6341 18.2327L25.9735 21.8652C25.5815 22.2542 24.9459 22.2542 24.5538 21.8652L20.8933 18.2327C18.5411 15.8986 18.5411 12.1143 20.8933 9.7802L24.5538 6.14773Z" stroke="#3A3845" stroke-width="5" mask="url(#path-3-inside-3_2517_6904)"/>
<mask id="path-4-inside-4_2517_6904" fill="white">
<path d="M24.421 25.2952C24.8131 24.9062 25.4487 24.9062 25.8407 25.2952L29.5013 28.9277C31.8534 31.2618 31.8534 35.0461 29.5013 37.3802L25.8407 41.0126C25.4487 41.4017 24.8131 41.4017 24.421 41.0126L20.7605 37.3802C18.4083 35.0461 18.4083 31.2618 20.7605 28.9277L24.421 25.2952Z"/>
</mask>
<path d="M24.421 25.2952C24.8131 24.9062 25.4487 24.9062 25.8407 25.2952L29.5013 28.9277C31.8534 31.2618 31.8534 35.0461 29.5013 37.3802L25.8407 41.0126C25.4487 41.4017 24.8131 41.4017 24.421 41.0126L20.7605 37.3802C18.4083 35.0461 18.4083 31.2618 20.7605 28.9277L24.421 25.2952Z" stroke="#3A3845" stroke-width="5" mask="url(#path-4-inside-4_2517_6904)"/>
<path d="M49.6148 24C49.6148 24.8711 49.237 25.6451 48.6112 26.6248C48.516 26.7738 48.4124 26.9308 48.3038 27.0954C47.7595 27.9199 47.0908 28.933 46.746 30.0628C46.3871 31.239 46.26 32.5447 46.1487 33.6878C46.1181 34.0017 46.0887 34.3034 46.0561 34.5868C45.8924 36.0078 45.6466 37.1026 45.0324 37.9371C44.4223 38.7658 43.4411 39.3393 42.1312 39.9355C41.8734 40.0528 41.598 40.1726 41.312 40.2969C40.2563 40.756 39.0563 41.2779 38.0655 41.9709C37.0923 42.6517 36.3735 43.6057 35.8037 44.3618C35.708 44.4888 35.6166 44.6102 35.5288 44.7238C34.8584 45.5914 34.3231 46.1435 33.5917 46.4014C32.5065 46.7839 31.3298 46.8026 29.9462 46.6886C29.5492 46.6559 29.1195 46.6097 28.6696 46.5613C27.6473 46.4514 26.5202 46.3302 25.4324 46.3302C24.3446 46.3302 23.2175 46.4514 22.1952 46.5613C21.7453 46.6097 21.3156 46.6559 20.9186 46.6886C19.535 46.8026 18.3583 46.7839 17.2731 46.4014C16.2841 46.0527 15.4883 45.4342 14.6337 44.6283C14.4192 44.426 14.1927 44.2027 13.9551 43.9684C13.3032 43.3256 12.5668 42.5995 11.7609 41.9952C10.9607 41.3951 10.0199 40.8742 9.17281 40.4053C8.8841 40.2454 8.60628 40.0916 8.34864 39.9427C7.25977 39.3136 6.40369 38.7131 5.83245 37.9371C5.18033 37.0512 4.83068 35.8959 4.54917 34.4853C4.47282 34.1027 4.40013 33.6891 4.32467 33.2597C4.14106 32.215 3.94099 31.0767 3.63163 30.0629C3.32151 29.0466 2.81437 28.1109 2.38649 27.3215C2.27248 27.1112 2.1641 26.9112 2.06657 26.7229C1.57181 25.7675 1.25 24.9493 1.25 24C1.25 23.0858 1.66188 22.0968 2.30268 20.8974C2.42238 20.6734 2.55294 20.4378 2.68829 20.1936C3.21075 19.2509 3.80445 18.1796 4.11884 17.1493C4.47003 15.9984 4.59987 14.8367 4.71001 13.8512C4.74201 13.5649 4.77235 13.2935 4.80596 13.0415C4.96324 11.8627 5.19665 10.9266 5.83245 10.0629C6.38974 9.30586 7.22394 8.75539 8.31273 8.17316C8.53901 8.05217 8.78176 7.92751 9.03454 7.7977C9.91213 7.34705 10.9107 6.83427 11.7609 6.19672C12.6098 5.56013 13.3735 4.76817 14.045 4.07188C14.2589 3.85007 14.4635 3.63797 14.6584 3.44369C15.5208 2.58425 16.3075 1.93905 17.2731 1.59865C18.3583 1.21607 19.535 1.19736 20.9186 1.31136C21.3157 1.34407 21.7453 1.39027 22.1953 1.43864C23.2175 1.54855 24.3446 1.66973 25.4324 1.66973C26.5202 1.66973 27.6473 1.54855 28.6696 1.43864C29.1195 1.39027 29.5492 1.34407 29.9462 1.31136C31.3298 1.19736 32.5065 1.21607 33.5917 1.59865C34.2991 1.84803 34.8298 2.41913 35.5097 3.34678C35.5931 3.46053 35.6799 3.58184 35.7706 3.70858C36.343 4.50842 37.0702 5.5247 38.0655 6.22093C39.0976 6.94294 40.4165 7.47651 41.5494 7.93487C41.8188 8.04386 42.0777 8.1486 42.3197 8.25061C43.742 8.85011 44.5994 9.35558 44.9688 9.96768C45.4455 10.7577 45.6858 11.7407 45.9044 13.0055C45.9455 13.2432 45.9858 13.4921 46.0276 13.7496C46.1973 14.7948 46.3902 15.9833 46.746 17.1493C47.0604 18.1796 47.6541 19.2508 48.1765 20.1936C48.3119 20.4378 48.4424 20.6734 48.5621 20.8974C49.2029 22.0968 49.6148 23.0858 49.6148 24Z" stroke="#3A3845" stroke-width="2.5"/>
<path d="M91.156 11.1504C91.3047 11.1504 91.4474 11.2205 91.5531 11.3455C91.6587 11.4705 91.7187 11.6402 91.7201 11.8177V35.964C91.7201 36.1415 91.6614 36.3119 91.5567 36.438C91.452 36.5641 91.3098 36.6358 91.1611 36.6374H88.4066C88.2579 36.6358 88.1157 36.5641 88.011 36.438C87.9063 36.3119 87.8476 36.1415 87.8476 35.964V20.2568C87.6307 20.4671 87.4071 20.6693 87.1767 20.8635C86.5211 21.4095 85.8554 21.8706 85.21 22.3195C84.5646 22.7685 84.1377 23.1204 83.6295 23.4783C82.678 24.1343 81.8496 25.0167 81.1957 26.0708C80.5418 27.1249 80.0763 28.3281 79.8281 29.6059C79.8002 29.7546 79.7306 29.8874 79.6308 29.9823C79.5309 30.0772 79.4069 30.1285 79.2792 30.1276H76.6518C76.5242 30.1285 76.4001 30.0772 76.3003 29.9823C76.2004 29.8874 76.1308 29.7546 76.1029 29.6059C75.8548 28.3265 75.3888 27.1217 74.734 26.0666C74.0791 25.0114 73.2494 24.1283 72.2965 23.4722C71.7883 23.1143 71.2801 22.7199 70.716 22.3135C70.1519 21.907 69.4048 21.4034 68.7492 20.8574C68.5188 20.6673 68.2952 20.4651 68.0784 20.2507V35.964C68.0784 36.1415 68.0197 36.3119 67.915 36.438C67.8103 36.5641 67.6681 36.6358 67.5194 36.6374H64.77C64.6212 36.6358 64.4791 36.5641 64.3744 36.438C64.2697 36.3119 64.2109 36.1415 64.2109 35.964V11.8238C64.2109 11.6452 64.2704 11.4739 64.3762 11.3476C64.482 11.2213 64.6254 11.1504 64.775 11.1504H67.4939C67.6264 11.1526 67.7539 11.2103 67.8542 11.3134C67.9546 11.4166 68.0213 11.5586 68.0428 11.7146C68.1953 12.8916 68.7746 15.6399 70.8938 17.1748C71.4529 17.5692 72.0068 18.012 72.6166 18.4428C73.2265 18.8735 73.8211 19.2679 74.4005 19.7532C75.5836 20.6922 76.6422 21.8374 77.5412 23.1507C77.5921 23.2277 77.6569 23.2899 77.7308 23.3327C77.8048 23.3755 77.8859 23.3977 77.9681 23.3977C78.0502 23.3977 78.1313 23.3755 78.2053 23.3327C78.2792 23.2899 78.344 23.2277 78.3949 23.1507C79.292 21.8357 80.3489 20.6885 81.5306 19.7472C82.1353 19.2618 82.7655 18.825 83.3195 18.4367C83.8734 18.0484 84.4934 17.5692 85.0372 17.1748C87.1615 15.6642 87.7408 12.928 87.8933 11.7146C87.9148 11.5586 87.9815 11.4166 88.0819 11.3134C88.1822 11.2103 88.3097 11.1526 88.4422 11.1504H91.156Z" fill="#3A3845"/>
<path d="M120.48 23.8939C120.48 30.9149 114.873 36.6374 107.976 36.6374C101.079 36.6374 95.4717 30.921 95.4717 23.8939C95.4717 16.8668 101.079 11.1504 107.976 11.1504C114.873 11.1504 120.48 16.8668 120.48 23.8939ZM107.976 15.7805C103.251 15.7805 99.4076 19.4215 99.4076 23.8939C99.4076 28.3662 103.251 31.9769 107.976 31.9769C112.701 31.9769 116.549 28.3359 116.549 23.8696C116.549 19.4033 112.701 15.7805 107.976 15.7805Z" fill="#3A3845"/>
<path d="M149.239 23.8939C149.239 30.9149 143.352 36.6374 136.11 36.6374C128.868 36.6374 122.98 30.921 122.98 23.8939C122.98 16.8668 128.868 11.1504 136.11 11.1504C143.352 11.1504 149.239 16.8668 149.239 23.8939ZM136.11 15.7805C131.148 15.7805 127.108 19.4215 127.108 23.8939C127.108 28.3662 131.148 31.9769 136.11 31.9769C141.071 31.9769 145.106 28.3359 145.106 23.8696C145.106 19.4033 141.055 15.7805 136.11 15.7805Z" fill="#3A3845"/>
<path d="M171.615 23.7058V11.8179C171.615 11.7302 171.629 11.6434 171.658 11.5625C171.686 11.4815 171.727 11.4079 171.779 11.3459C171.831 11.2839 171.893 11.2347 171.961 11.2012C172.029 11.1677 172.102 11.1504 172.175 11.1504H174.937C175.011 11.1504 175.084 11.1677 175.152 11.2012C175.22 11.2347 175.281 11.2839 175.334 11.3459C175.386 11.4079 175.427 11.4815 175.455 11.5625C175.483 11.6434 175.498 11.7302 175.498 11.8179V35.9699C175.498 36.0575 175.483 36.1443 175.455 36.2253C175.427 36.3063 175.386 36.3799 175.334 36.4419C175.281 36.5038 175.22 36.553 175.152 36.5866C175.084 36.6201 175.011 36.6374 174.937 36.6374H172.201C172.127 36.6374 172.054 36.6201 171.986 36.5866C171.918 36.553 171.857 36.5038 171.804 36.4419C171.752 36.3799 171.711 36.3063 171.683 36.2253C171.655 36.1443 171.64 36.0575 171.64 35.9699V34.0705C171.643 33.4759 171.532 32.8884 171.314 32.3531C170.504 30.3991 168.41 26.7824 163.518 24.5675C161.451 23.658 159.516 22.3724 157.78 20.7566C157.698 20.6768 157.599 20.6265 157.494 20.6117C157.389 20.5969 157.282 20.6181 157.187 20.673C157.092 20.7278 157.011 20.8139 156.956 20.9212C156.9 21.0285 156.872 21.1524 156.873 21.2784V35.9699C156.873 36.1469 156.814 36.3167 156.709 36.4419C156.604 36.567 156.461 36.6374 156.313 36.6374H153.551C153.402 36.6374 153.26 36.567 153.154 36.4419C153.049 36.3167 152.99 36.1469 152.99 35.9699V11.8179C152.99 11.6409 153.049 11.4711 153.154 11.3459C153.26 11.2207 153.402 11.1504 153.551 11.1504H156.236C156.348 11.153 156.456 11.1955 156.547 11.2724C156.638 11.3492 156.707 11.4568 156.746 11.5812C157.189 13.0134 159.034 17.6496 164.868 20.2347C166.98 21.1542 168.943 22.4987 170.672 24.2094C170.753 24.2931 170.853 24.3473 170.959 24.3655C171.065 24.3837 171.174 24.3652 171.272 24.3121C171.369 24.2591 171.452 24.1737 171.51 24.0662C171.568 23.9587 171.599 23.8336 171.6 23.7058H171.615Z" fill="#3A3845"/>
<path d="M179.249 34.0887C179.249 33.5844 179.359 33.0914 179.565 32.6721C179.772 32.2528 180.065 31.9262 180.408 31.7334C180.751 31.5407 181.128 31.4906 181.492 31.5895C181.856 31.6883 182.19 31.9317 182.453 32.2887C182.715 32.6458 182.893 33.1005 182.965 33.5953C183.037 34.0901 182.999 34.6028 182.856 35.0684C182.714 35.534 182.472 35.9316 182.163 36.2109C181.854 36.4902 181.491 36.6387 181.12 36.6374C180.874 36.6374 180.63 36.5715 180.403 36.4433C180.176 36.3151 179.969 36.1273 179.795 35.8906C179.622 35.6538 179.484 35.3728 179.39 35.0636C179.296 34.7544 179.248 34.4231 179.249 34.0887Z" fill="#3A3845"/>
</svg>
